<svg xmlns="http://www.w3.org/2000/svg" xmlns:xlink="http://www.w3.org/1999/xlink" width="24" height="24" viewBox="0 0 24 24">
    <defs>
        <path id="a" d="M22.313 4.733h-.688v-2.05A.685.685 0 0 0 20.937 2c-5.282 0-7.909 1.604-8.94 2.467C10.956 3.607 8.31 2 3.063 2a.685.685 0 0 0-.688.683v2.05h-.688A.685.685 0 0 0 1 5.416v15.031c0 .378.308.683.688.683h20.625c.379 0 .687-.305.687-.683V5.417a.685.685 0 0 0-.688-.684zM3.87 2.957c4.807.142 6.914 1.788 7.452 2.295v7.853h1.356V5.248c.525-.503 2.602-2.15 7.452-2.291v12.867c-4.723.131-7.147 1.622-8.127 2.437-.971-.819-3.38-2.307-8.133-2.437V2.957z"/>
    </defs>
    <g fill="none" fill-rule="evenodd">
        <path d="M0 0h24v24H0z"/>
        <mask id="b" fill="#fff">
            <use xlink:href="#a"/>
        </mask>
        <use fill="#0064E6" fill-rule="nonzero" xlink:href="#a"/>
        <g fill="#36B37E" mask="url(#b)">
            <path d="M0 0h24v24H0z"/>
        </g>
    </g>
</svg>
