<svg xmlns="http://www.w3.org/2000/svg" xmlns:xlink="http://www.w3.org/1999/xlink" width="24" height="24" viewBox="0 0 24 24">
    <defs>
        <path id="a" d="M16.04 9.021l-1.325 1.325a5.578 5.578 0 1 1-1.06-1.06l1.324-1.326-.69-3.448L18.323.48l.69 3.448 1.767-1.768 1.06 1.061-1.767 1.768 3.448.69-4.033 4.033-3.448-.69zm-3.46 1.338a4.078 4.078 0 1 0 1.06 1.06l-2.834 2.835-1.06-1.06 2.834-2.835zm4.984 1.48l-.187-.726 1.453-.374.187.727a9.026 9.026 0 1 1-6.483-6.482l.726.186-.374 1.453-.726-.187a7.526 7.526 0 1 0 5.404 5.403zm.35-5.753l-.513-2.565-1.483 1.484.512 2.565 2.565.512L20.479 6.6l-2.565-.513z"/>
    </defs>
    <g fill="none" fill-rule="evenodd">
        <path d="M0 0h24v24H0z"/>
        <mask id="b" fill="#fff">
            <use xlink:href="#a"/>
        </mask>
        <use fill="#0064E6" fill-rule="nonzero" xlink:href="#a"/>
        <g fill="#36B37E" mask="url(#b)">
            <path d="M0 0h24v24H0z"/>
        </g>
    </g>
</svg>
