<?xml version="1.0" encoding="UTF-8" standalone="no"?>
<svg width="24px" height="24px" viewBox="0 0 24 24" version="1.1" xmlns="http://www.w3.org/2000/svg" xmlns:xlink="http://www.w3.org/1999/xlink">
    <!-- Generator: Sketch 47.1 (45422) - http://www.bohemiancoding.com/sketch -->
    <title>facebook-icon</title>
    <desc>Created with Sketch.</desc>
    <defs></defs>
    <g id="External-Pages" stroke="none" stroke-width="1" fill="none" fill-rule="evenodd">
        <g id="Signup-Popup" transform="translate(-525.000000, -296.000000)" fill-rule="nonzero">
            <g id="facebook-icon" transform="translate(525.000000, 296.000000)">
                <path d="M23,24 C23.552285,24 24,23.552285 24,23 L24,1 C24,0.447715 23.552285,0 23,0 L1,0 C0.447715,0 0,0.447715 0,1 L0,23 C0,23.552285 0.447715,24 1,24 L23,24 Z" id="White_4_" fill="#FFFFFF"></path>
                <path d="M12.6947707,24 L12.6947707,14.4417835 L9.5,14.4417835 L9.5,10.9203353 L12.6947707,10.9203353 L12.6947707,8.31717009 C12.6947707,5.19828882 14.5504288,3.5 17.2607528,3.5 C18.559024,3.5 19.6748221,3.59922435 20,3.64357447 L20,6.90298668 L18.1202457,6.90386201 C16.6462202,6.90386201 16.3608105,7.62288639 16.3608105,8.67800283 L16.3608105,10.9203353 L19.7912157,10.9203353 L19.3011578,14.4417835 L16.3608105,14.4417835 L16.3608105,24 L12.6947707,24 Z" id="White_2_" fill="#4568B1"></path>
            </g>
        </g>
    </g>
</svg>