<?xml version="1.0" encoding="UTF-8" standalone="no"?>
<svg width="38px" height="35px" viewBox="0 0 38 35" version="1.1" xmlns="http://www.w3.org/2000/svg" xmlns:xlink="http://www.w3.org/1999/xlink">
    <!-- Generator: Sketch 47.1 (45422) - http://www.bohemiancoding.com/sketch -->
    <title>Shape</title>
    <desc>Created with Sketch.</desc>
    <defs></defs>
    <g id="External-Pages" stroke="none" stroke-width="1" fill="none" fill-rule="evenodd">
        <g id="Become-a-Tutor-Landing-Page---Desktop" transform="translate(-1093.000000, -1304.000000)" fill-rule="nonzero" fill="#FF4F4F">
            <path d="M1127.75417,1307.278 C1125.65942,1305.16512 1122.8775,1304 1119.91667,1304 C1116.95583,1304 1114.17392,1305.16512 1112.08075,1307.27641 C1112.05383,1307.30358 1112.02692,1307.33075 1112,1307.35951 C1111.97308,1307.33075 1111.94775,1307.30517 1111.92083,1307.278 C1109.82608,1305.16512 1107.04417,1304 1104.08333,1304 C1101.1225,1304 1098.34058,1305.16512 1096.24583,1307.278 C1094.15108,1309.39089 1093,1312.199 1093,1315.18773 C1093,1318.17645 1094.15267,1320.98457 1096.24583,1323.09745 L1112,1339 L1127.75417,1323.09745 C1129.84733,1320.98457 1131,1318.17645 1131,1315.18773 C1131,1312.2006 1129.84733,1309.39089 1127.75417,1307.278 Z" id="Shape"></path>
        </g>
    </g>
</svg>