<?xml version="1.0" encoding="UTF-8" standalone="no"?>
<svg width="42px" height="42px" viewBox="0 0 42 42" version="1.1" xmlns="http://www.w3.org/2000/svg" xmlns:xlink="http://www.w3.org/1999/xlink">
    <!-- Generator: Sketch 47.1 (45422) - http://www.bohemiancoding.com/sketch -->
    <title>tutors-icon</title>
    <desc>Created with Sketch.</desc>
    <defs></defs>
    <g id="External-Pages" stroke="none" stroke-width="1" fill="none" fill-rule="evenodd">
        <g id="Tutor-Card-Popup-Copy" transform="translate(-651.000000, -326.000000)" stroke="#36B37E" stroke-width="2">
            <g id="tutors-icon" transform="translate(652.000000, 327.000000)">
                <path d="M9.07636364,32.2490909 L13.0909091,35.2727273 C14.0072727,35.96 14.5454545,37.0363636 14.5454545,38.1818182 L14.5454545,40 L0,40 L0,38.1818182 C0,37.0363636 0.538181818,35.96 1.45454545,35.2727273 L5.46909091,32.2490909" id="Shape"></path>
                <path d="M7.27272727,32.7272727 L7.27272727,32.7272727 C5.26363636,32.7272727 3.63636364,31.1 3.63636364,29.0909091 L3.63636364,27.2727273 C3.63636364,25.2636364 5.26363636,23.6363636 7.27272727,23.6363636 L7.27272727,23.6363636 C9.28181818,23.6363636 10.9090909,25.2636364 10.9090909,27.2727273 L10.9090909,29.0909091 C10.9090909,31.1 9.28181818,32.7272727 7.27272727,32.7272727 Z" id="Shape" stroke-linecap="square"></path>
                <path d="M21.8036364,8.61272727 L25.8181818,11.6363636 C26.7345455,12.3236364 27.2727273,13.4 27.2727273,14.5454545 L27.2727273,16.3636364 L12.7272727,16.3636364 L12.7272727,14.5454545 C12.7272727,13.4 13.2654545,12.3236364 14.1818182,11.6363636 L18.1963636,8.61272727" id="Shape"></path>
                <path d="M20,9.09090909 L20,9.09090909 C17.9909091,9.09090909 16.3636364,7.46363636 16.3636364,5.45454545 L16.3636364,3.63636364 C16.3636364,1.62727273 17.9909091,0 20,0 L20,0 C22.0090909,0 23.6363636,1.62727273 23.6363636,3.63636364 L23.6363636,5.45454545 C23.6363636,7.46363636 22.0090909,9.09090909 20,9.09090909 Z" id="Shape" stroke-linecap="square"></path>
                <path d="M34.5309091,32.2490909 L38.5454545,35.2727273 C39.4618182,35.96 40,37.0363636 40,38.1818182 L40,40 L25.4545455,40 L25.4545455,38.1818182 C25.4545455,37.0363636 25.9927273,35.96 26.9090909,35.2727273 L30.9236364,32.2490909" id="Shape"></path>
                <path d="M32.7272727,32.7272727 L32.7272727,32.7272727 C30.7181818,32.7272727 29.0909091,31.1 29.0909091,29.0909091 L29.0909091,27.2727273 C29.0909091,25.2636364 30.7181818,23.6363636 32.7272727,23.6363636 L32.7272727,23.6363636 C34.7363636,23.6363636 36.3636364,25.2636364 36.3636364,27.2727273 L36.3636364,29.0909091 C36.3636364,31.1 34.7363636,32.7272727 32.7272727,32.7272727 Z" id="Shape" stroke-linecap="square"></path>
            </g>
        </g>
    </g>
</svg>