<?xml version="1.0" encoding="UTF-8" standalone="no"?>
<svg width="109px" height="24px" viewBox="0 0 95 21" version="1.1" xmlns="http://www.w3.org/2000/svg" xmlns:xlink="http://www.w3.org/1999/xlink">
    <!-- Generator: Sketch 46.1 (44463) - http://www.bohemiancoding.com/sketch -->
    <title>Tuteria-logo-primary Copy 2</title>
    <desc>Created with Sketch.</desc>
    <defs></defs>
    <g id="Tuteria-UX" stroke="none" stroke-width="1" fill="none" fill-rule="evenodd">
        <g id="Step-3---Tutor-Profile" transform="translate(-635.000000, -21.000000)" fill="#ffffff">
            <g id="Tuteria-logo-primary-Copy-2" transform="translate(635.000000, 21.000000)">
                <path d="M9.93086447,12.8332969 C10.2448967,12.8332969 10.558929,12.9028498 10.8505419,13.042271 L16.4516709,15.7138268 L16.4516709,3.50721854 L3.54844511,3.50721854 L3.54844511,15.5699896 L9.0336064,13.0315463 C9.31925156,12.8992223 9.62505802,12.8332969 9.93086447,12.8332969 M17.9045741,20.0374606 C17.5916709,20.0374606 17.2778,19.9680655 16.9847354,19.8286443 L9.92102576,16.4593516 L2.99376769,19.6652502 C2.34021931,19.96775 1.58602576,19.9224855 0.975219305,19.5444396 C0.364412854,19.1663937 5.80151416e-05,18.5188107 5.80151416e-05,17.8120841 L5.80151416e-05,2.08777212 C5.80151416e-05,0.957261907 0.940703176,0.0374606299 2.09683221,0.0374606299 L17.9032838,0.0374606299 C19.0594129,0.0374606299 20.000058,0.957261907 20.000058,2.08777212 L20.000058,17.9854143 C20.000058,18.6968723 19.6318322,19.3468211 19.0147354,19.7239207 C18.6742516,19.9322639 18.2902193,20.0374606 17.9045741,20.0374606" id="Fill-1"></path>
                <path d="M34.244898,8.37569286 L31.2162004,8.37569286 L31.2162004,12.2378357 C31.2162004,12.5559713 31.2310525,12.8460129 31.2618993,13.108356 C31.2923653,13.3705014 31.3612945,13.5970345 31.4684966,13.7877576 C31.5751275,13.9782829 31.7398341,14.12548 31.9618548,14.2287553 C32.1834947,14.3322286 32.4780625,14.3836684 32.8451773,14.3836684 C33.0287348,14.3836684 33.2697967,14.3640817 33.5679823,14.3239191 C33.8663584,14.2847456 34.0918065,14.1929453 34.244898,14.0501008 L34.244898,17.0300504 C33.8623597,17.1732905 33.4645885,17.2684542 33.0517747,17.316135 C32.63858,17.3640136 32.2333827,17.3877551 31.8358019,17.3877551 C31.2540924,17.3877551 30.7186531,17.3240488 30.229484,17.197032 C29.7397436,17.0700152 29.3116968,16.8674213 28.9443916,16.5890527 C28.5772767,16.3110797 28.2905158,15.949418 28.0839185,15.5042655 C27.877702,15.0593109 27.7743081,14.5189948 27.7743081,13.8829213 L27.7743081,8.37569286 L25.5714286,8.37569286 L25.5714286,5.51464848 L27.7743081,5.51464848 L27.7743081,2.08163265 L31.2162004,2.08163265 L31.2162004,5.51464848 L34.244898,5.51464848 L34.244898,8.37569286 Z" id="Fill-4"></path>
                <path d="M56.2984694,8.37569286 L53.2697718,8.37569286 L53.2697718,12.2378357 C53.2697718,12.5559713 53.284624,12.8460129 53.3154707,13.108356 C53.3459367,13.3705014 53.4148659,13.5970345 53.5220681,13.7877576 C53.6286989,13.9782829 53.7934055,14.12548 54.0154263,14.2287553 C54.2370661,14.3322286 54.5316339,14.3836684 54.8987488,14.3836684 C55.0823062,14.3836684 55.3233681,14.3640817 55.6215538,14.3239191 C55.9199298,14.2847456 56.1453779,14.1929453 56.2984694,14.0501008 L56.2984694,17.0300504 C55.9159311,17.1732905 55.5181599,17.2684542 55.1053461,17.316135 C54.6921515,17.3640136 54.2869541,17.3877551 53.8893733,17.3877551 C53.3074734,17.3877551 52.7722245,17.3240488 52.2830554,17.197032 C51.793315,17.0700152 51.3652683,16.8674213 50.997963,16.5890527 C50.6308481,16.3110797 50.3440872,15.949418 50.1374899,15.5042655 C49.9312734,15.0593109 49.8278796,14.5189948 49.8278796,13.8829213 L49.8278796,8.37569286 L47.625,8.37569286 L47.625,5.51464848 L49.8278796,5.51464848 L49.8278796,2.08163265 L53.2697718,2.08163265 L53.2697718,5.51464848 L56.2984694,5.51464848 L56.2984694,8.37569286 Z" id="Fill-6"></path>
                <path d="M64.8940062,9.94482089 C64.9096494,9.33653097 64.7131325,8.81650585 64.3048469,8.3841478 C63.8961701,7.951989 63.3703654,7.73580997 62.7262595,7.73580997 C62.3332259,7.73580997 61.9877082,7.79996633 61.6893155,7.9280798 C61.3909228,8.05619326 61.1355487,8.22036978 60.9235843,8.42021085 C60.7114244,8.62064965 60.5467804,8.85256889 60.4288703,9.11656632 C60.3111558,9.38076299 60.2438903,9.65671502 60.2286383,9.94482089 L64.8940062,9.94482089 Z M67.8867325,15.0829081 C67.3212334,15.8193115 66.6061468,16.3877528 65.7424505,16.7878334 C64.8783631,17.1877148 63.9827939,17.3877551 63.056134,17.3877551 C62.1764035,17.3877551 61.3477087,17.2439014 60.5702451,16.9557955 C59.792586,16.6676897 59.1169984,16.2556544 58.5436777,15.7192914 C57.9699659,15.1831275 57.5186616,14.5389738 57.1887871,13.7864317 C56.8589126,13.0342881 56.6938776,12.1938797 56.6938776,11.2654057 C56.6938776,10.3373303 56.8589126,9.49692186 57.1887871,8.74437976 C57.5186616,7.99223615 57.9699659,7.34808243 58.5436777,6.81132087 C59.1169984,6.27535629 59.792586,5.86312182 60.5702451,5.5748167 C61.3477087,5.28691008 62.1764035,5.14285714 63.056134,5.14285714 C63.8727054,5.14285714 64.6149719,5.28691008 65.2829335,5.5748167 C65.9503086,5.86312182 66.5158077,6.27535629 66.979431,6.81132087 C67.4424676,7.34808243 67.8001087,7.99223615 68.0513765,8.74437976 C68.3028398,9.49692186 68.4285714,10.3373303 68.4285714,11.2654057 L68.4285714,12.39392 L60.2286383,12.39392 C60.3698175,13.0823058 60.6762273,13.6302249 61.1474766,14.0384746 C61.6187259,14.4469234 62.1998682,14.6507493 62.8912945,14.6507493 C63.4722413,14.6507493 63.96324,14.518651 64.3638997,14.2546536 C64.7643638,13.9906562 65.1139877,13.6505478 65.4123804,13.2343284 L67.8867325,15.0829081 Z" id="Fill-8"></path>
                <path d="M69.9591837,5.42541588 L73.5395006,5.42541588 L73.5395006,7.26331873 L73.5872356,7.26331873 C73.9691149,6.55643302 74.4224976,6.02612208 74.9479779,5.67297254 C75.4728639,5.31943191 76.1328338,5.14285714 76.9288779,5.14285714 C77.1352671,5.14285714 77.3422505,5.15087438 77.5494319,5.16632223 C77.7560191,5.18196562 77.9469588,5.2132524 78.122449,5.26057366 L78.122449,8.48878284 C77.8675326,8.41037034 77.6169738,8.35131654 77.3703764,8.31220807 C77.123581,8.27309959 76.8649013,8.25315427 76.5947335,8.25315427 C75.910401,8.25315427 75.3690751,8.3474057 74.9717463,8.53590855 C74.5736252,8.72441141 74.2676067,8.98761145 74.0527005,9.32531315 C73.8377944,9.66321038 73.6983529,10.0673965 73.6349705,10.5386536 C73.5709938,11.0103019 73.5395006,11.5284892 73.5395006,12.0941933 L73.5395006,16.877551 L69.9591837,16.877551 L69.9591837,5.42541588 Z" id="Fill-10"></path>
                <path d="M78.9141315,16.877551 L82.4330019,16.877551 L82.4330019,5.41000123 L78.9141315,5.41000123 L78.9141315,16.877551 Z M78.6326531,2.09344626 C78.6326531,1.52737232 78.8321796,1.04353672 79.2308435,0.642331079 C79.629702,0.241321244 80.1105124,0.0408163265 80.673664,0.0408163265 C81.2364264,0.0408163265 81.7174314,0.241321244 82.1162899,0.642331079 C82.5149538,1.04353672 82.7142857,1.52737232 82.7142857,2.09344626 C82.7142857,2.65991181 82.5149538,3.14374741 82.1162899,3.54475724 C81.7174314,3.94576707 81.2364264,4.1464678 80.673664,4.1464678 C80.1105124,4.1464678 79.629702,3.94576707 79.2308435,3.54475724 C78.8321796,3.14374741 78.6326531,2.65991181 78.6326531,2.09344626 L78.6326531,2.09344626 Z" id="Fill-12"></path>
                <path d="M90.2428875,11.9856704 C89.970034,11.9856704 89.629765,11.997625 89.2212826,12.0215342 C88.8126007,12.0458419 88.4196758,12.1139831 88.043505,12.2257586 C87.6669353,12.3381319 87.3464122,12.5058948 87.0819358,12.7300435 C86.8176589,12.9541923 86.6856201,13.2664066 86.6856201,13.6664872 C86.6856201,14.0984468 86.8697165,14.4188301 87.238308,14.6268401 C87.6067001,14.8348502 87.9914474,14.9388552 88.3919516,14.9388552 C88.7441879,14.9388552 89.0848558,14.8908376 89.4135565,14.7950015 C89.7416588,14.698767 90.0342583,14.5630823 90.2907565,14.3867519 C90.5468558,14.21082 90.7512965,13.9866713 90.9036795,13.7143056 C91.0556637,13.4423385 91.1320547,13.1223537 91.1320547,12.7539527 L91.1320547,11.9856704 L90.2428875,11.9856704 Z M91.1320547,15.6350114 L91.0839862,15.6350114 C90.6832825,16.2592408 90.1503407,16.7075383 89.4855595,16.9795055 C88.8205789,17.2516719 88.1192976,17.3877551 87.3825134,17.3877551 C86.8378038,17.3877551 86.3128401,17.3116441 85.8082207,17.1598207 C85.3034019,17.0077981 84.8588183,16.7798637 84.4740709,16.4754198 C84.0895231,16.1715738 83.7851558,15.7954023 83.5609692,15.3469056 C83.3363837,14.8990065 83.2244898,14.3787822 83.2244898,13.7864317 C83.2244898,13.1141847 83.3483509,12.5461419 83.5970704,12.0815065 C83.845391,11.6174687 84.1816709,11.2335268 84.6065086,10.929083 C85.0309473,10.6254361 85.5156213,10.3889343 86.0605304,10.2209722 C86.6052401,10.0528108 87.1700946,9.92908066 87.7550941,9.8487856 C88.339894,9.76888902 88.9244946,9.72087137 89.509494,9.70473266 C90.0944935,9.68899244 90.6354135,9.68082346 91.1320547,9.68082346 C91.1320547,9.04065461 90.6042986,7.59175704 88.8247674,7.59175704 C88.2317898,7.59175704 87.6908698,7.71588564 87.2022068,7.9639436 C86.7133443,8.21240004 86.2769383,8.55230918 85.8923904,8.98446799 L83.9694516,7.01574454 C84.6426098,6.39151516 85.427263,5.92289482 86.3250068,5.61107899 C87.2221522,5.29886468 88.1516092,5.14285714 89.1131783,5.14285714 C90.170685,5.14285714 91.0397074,5.27475623 91.7208438,5.5389529 C92.4017807,5.80295033 92.9468893,6.1912756 93.3553717,6.70333098 C93.7638541,7.2159841 94.0480765,7.84399911 94.2086372,8.58817298 C94.368799,9.3325461 94.4489796,10.1930781 94.4489796,11.1691712 L94.4489796,17.0998485 L91.1320547,17.0998485 L91.1320547,15.6350114 Z" id="Fill-14"></path>
                <path d="M40.877551,17.8979592 C37.7829249,17.8979592 35.2653061,15.4282205 35.2653061,12.3924506 L35.2653061,5.65306122 L38.5983424,5.65306122 L38.5983424,12.3924506 C38.5983424,13.574928 39.6208003,14.5369635 40.877551,14.5369635 C42.1343018,14.5369635 43.1567596,13.574928 43.1567596,12.3924506 L43.1567596,5.65306122 L46.4897959,5.65306122 L46.4897959,12.3924506 C46.4897959,15.4282205 43.9721772,17.8979592 40.877551,17.8979592" id="Fill-15"></path>
            </g>
        </g>
    </g>
</svg>