<?xml version="1.0" encoding="UTF-8" standalone="no"?>
<svg width="111px" height="29px" viewBox="0 0 111 29" version="1.1" xmlns="http://www.w3.org/2000/svg" xmlns:xlink="http://www.w3.org/1999/xlink">
    <!-- Generator: Sketch 45.2 (43514) - http://www.bohemiancoding.com/sketch -->
    <title>Tuteria-logotype</title>
    <desc>Created with Sketch.</desc>
    <defs></defs>
    <g id="Style-Page" stroke="none" stroke-width="1" fill="none" fill-rule="evenodd">
        <g id="Form-Elements" transform="translate(-744.000000, -61.000000)" fill="#337AB7">
            <g id="Tuteria-logotype" transform="translate(744.000000, 61.000000)">
                <path d="M14.5918367,13.6011086 L9.74592059,13.6011086 L9.74592059,19.7805371 C9.74592059,20.2895541 9.76968404,20.7536206 9.8190389,21.1733697 C9.86778444,21.5928022 9.97807123,21.9552553 10.1495946,22.2604122 C10.320204,22.5652526 10.5837346,22.800768 10.9389677,22.9660086 C11.2935915,23.1315657 11.7649,23.2138694 12.3522838,23.2138694 C12.6459756,23.2138694 13.0316747,23.1825307 13.5087717,23.1182705 C13.9861734,23.055593 14.3468904,22.9087125 14.5918367,22.6801613 L14.5918367,27.4480806 C13.9797755,27.6772649 13.3433416,27.8295268 12.6828395,27.905816 C12.0217281,27.9824218 11.3734124,28.0204082 10.737283,28.0204082 C9.80654785,28.0204082 8.94984496,27.9184781 8.16717436,27.7152512 C7.38358978,27.5120243 6.69871492,27.1878741 6.11102648,26.7424842 C5.52364271,26.2977275 5.0648253,25.7190688 4.73426959,25.0068249 C4.40432321,24.2948975 4.23889303,23.4303916 4.23889303,22.4126741 L4.23889303,13.6011086 L0.714285714,13.6011086 L0.714285714,9.02343757 L4.23889303,9.02343757 L4.23889303,3.53061224 L9.74592059,3.53061224 L9.74592059,9.02343757 L14.5918367,9.02343757 L14.5918367,13.6011086 Z" id="Fill-4"></path>
                <path d="M49.877551,13.6011086 L45.0316349,13.6011086 L45.0316349,19.7805371 C45.0316349,20.2895541 45.0553983,20.7536206 45.1047532,21.1733697 C45.1534987,21.5928022 45.2637855,21.9552553 45.4353089,22.2604122 C45.6059183,22.5652526 45.8694489,22.800768 46.224682,22.9660086 C46.5793058,23.1315657 47.0506143,23.2138694 47.637998,23.2138694 C47.9316899,23.2138694 48.317389,23.1825307 48.794486,23.1182705 C49.2718877,23.055593 49.6326047,22.9087125 49.877551,22.6801613 L49.877551,27.4480806 C49.2654898,27.6772649 48.6290558,27.8295268 47.9685537,27.905816 C47.3074423,27.9824218 46.6591266,28.0204082 46.0229973,28.0204082 C45.0919575,28.0204082 44.2355592,27.9184781 43.4528886,27.7152512 C42.6693041,27.5120243 41.9844292,27.1878741 41.3967408,26.7424842 C40.809357,26.2977275 40.3505396,25.7190688 40.0199839,25.0068249 C39.6900375,24.2948975 39.5246073,23.4303916 39.5246073,22.4126741 L39.5246073,13.6011086 L36,13.6011086 L36,9.02343757 L39.5246073,9.02343757 L39.5246073,3.53061224 L45.0316349,3.53061224 L45.0316349,9.02343757 L49.877551,9.02343757 L49.877551,13.6011086 Z" id="Fill-6"></path>
                <path d="M63.63041,16.1117134 C63.655439,15.1384495 63.3410121,14.3064094 62.687755,13.6146365 C62.0338721,12.9231824 61.1925846,12.577296 60.1620152,12.577296 C59.5331614,12.577296 58.9803332,12.6799461 58.5029049,12.8849277 C58.0254765,13.0899092 57.616878,13.3525916 57.2777349,13.6723374 C56.938279,13.9930394 56.6748487,14.3641102 56.4861926,14.7865061 C56.2978493,15.2092208 56.1902245,15.650744 56.1658213,16.1117134 L63.63041,16.1117134 Z M68.418772,24.332653 C67.5139734,25.5108984 66.3698349,26.4204044 64.9879208,27.0605334 C63.605381,27.7003437 62.1724703,28.0204082 60.6898144,28.0204082 C59.2822456,28.0204082 57.9563339,27.7902423 56.7123922,27.3292729 C55.4681377,26.8683035 54.3871974,26.2090471 53.4698843,25.3508662 C52.5519454,24.4930041 51.8298585,23.4623581 51.3020593,22.2582908 C50.7742601,21.054861 50.5102041,19.7102075 50.5102041,18.2246492 C50.5102041,16.7397284 50.7742601,15.395075 51.3020593,14.1910076 C51.8298585,12.9875778 52.5519454,11.9569319 53.4698843,11.0981134 C54.3871974,10.2405701 55.4681377,9.58099491 56.7123922,9.11970673 C57.9563339,8.65905612 59.2822456,8.42857143 60.6898144,8.42857143 C61.9963286,8.42857143 63.183955,8.65905612 64.2526937,9.11970673 C65.3204937,9.58099491 66.2252924,10.2405701 66.9670896,11.0981134 C67.7079482,11.9569319 68.2801739,12.9875778 68.6822023,14.1910076 C69.0845436,15.395075 69.2857143,16.7397284 69.2857143,18.2246492 L69.2857143,20.030272 L56.1658213,20.030272 C56.3917081,21.1316892 56.8819637,22.0083599 57.6359626,22.6615593 C58.3899615,23.3150774 59.3197891,23.6411989 60.4260712,23.6411989 C61.355586,23.6411989 62.141184,23.4298416 62.7822395,23.0074457 C63.4229821,22.5850498 63.9823804,22.0408764 64.4598087,21.3749255 L68.418772,24.332653 Z" id="Fill-8"></path>
                <path d="M71.7346939,8.88066542 L77.463201,8.88066542 L77.463201,11.82131 L77.5395769,11.82131 C78.1505839,10.6902928 78.8759962,9.84179533 79.7167646,9.27675606 C80.5565822,8.71109106 81.6125341,8.42857143 82.8862047,8.42857143 C83.2164273,8.42857143 83.5476007,8.44139901 83.879091,8.46611557 C84.2096306,8.49114499 84.515134,8.54120384 84.7959184,8.61691785 L84.7959184,13.7820525 C84.3880522,13.6565925 83.9871581,13.5621065 83.5926023,13.4995329 C83.1977295,13.4369593 82.783842,13.4050468 82.3515736,13.4050468 C81.2566415,13.4050468 80.3905202,13.5558491 79.754794,13.8574537 C79.1178003,14.1590583 78.6281707,14.5801783 78.2843209,15.120501 C77.940471,15.6611366 77.7173647,16.3078344 77.6159528,17.0618458 C77.5135901,17.816483 77.463201,18.6455827 77.463201,19.5507092 L77.463201,27.2040816 L71.7346939,27.2040816 L71.7346939,8.88066542 Z" id="Fill-10"></path>
                <path d="M86.0626105,27.2040816 L91.692803,27.2040816 L91.692803,8.85600196 L86.0626105,8.85600196 L86.0626105,27.2040816 Z M85.6122449,3.54951401 C85.6122449,2.6437957 85.9314874,1.86965875 86.5693496,1.22772973 C87.2075232,0.58611399 87.9768199,0.265306122 88.8778625,0.265306122 C89.7782822,0.265306122 90.5478903,0.58611399 91.1860639,1.22772973 C91.8239261,1.86965875 92.1428571,2.6437957 92.1428571,3.54951401 C92.1428571,4.45585889 91.8239261,5.22999585 91.1860639,5.87161158 C90.5478903,6.51322732 89.7782822,6.83434848 88.8778625,6.83434848 C87.9768199,6.83434848 87.2075232,6.51322732 86.5693496,5.87161158 C85.9314874,5.22999585 85.6122449,4.45585889 85.6122449,3.54951401 L85.6122449,3.54951401 Z" id="Fill-12"></path>
                <path d="M104.18862,19.3770727 C103.752054,19.3770727 103.207624,19.3962 102.554052,19.4344548 C101.900161,19.4733471 101.271481,19.582373 100.669608,19.7612138 C100.067096,19.941011 99.5542595,20.2094316 99.1310973,20.5680697 C98.7082542,20.9267077 98.4969922,21.4262506 98.4969922,22.0663796 C98.4969922,22.7575149 98.7915463,23.2701281 99.3812928,23.6029442 C99.9707201,23.9357603 100.586316,24.1021683 101.227123,24.1021683 C101.790701,24.1021683 102.335769,24.0253401 102.86169,23.8720024 C103.386654,23.7180272 103.854813,23.5009316 104.26521,23.2188031 C104.674969,22.9373121 105.002074,22.5786741 105.245887,22.142889 C105.489062,21.7077416 105.611288,21.1957659 105.611288,20.6063244 L105.611288,19.3770727 L104.18862,19.3770727 Z M105.611288,25.2160183 L105.534378,25.2160183 C104.893252,26.2147853 104.040545,26.9320613 102.976895,27.3672088 C101.912926,27.802675 100.790876,28.0204082 99.6120215,28.0204082 C98.740486,28.0204082 97.9005441,27.8986306 97.0931531,27.6557132 C96.285443,27.4124769 95.5741092,27.0477819 94.9585135,26.5606718 C94.3432369,26.074518 93.8562493,25.4726437 93.4975507,24.7550489 C93.1382138,24.0384105 92.9591837,23.2060515 92.9591837,22.2582908 C92.9591837,21.1826955 93.1573615,20.2738271 93.5553127,19.5304103 C93.9526256,18.78795 94.4906735,18.1736429 95.1704137,17.6865328 C95.8495157,17.2006978 96.624994,16.8222949 97.4968486,16.5535554 C98.3683841,16.2844972 99.2721514,16.0865291 100.208151,15.958057 C101.14383,15.8302224 102.079191,15.7533942 103.01519,15.7275723 C103.95119,15.7023879 104.816662,15.6893175 105.611288,15.6893175 C105.611288,14.6650474 104.766878,12.3468113 101.919628,12.3468113 C100.970864,12.3468113 100.105392,12.545417 99.3235308,12.9423098 C98.5413509,13.3398401 97.8431013,13.8836947 97.2278247,14.5751488 L94.1511225,11.4251913 C95.2281757,10.4264242 96.4836208,9.67663171 97.9200109,9.17772639 C99.3554435,8.67818349 100.842575,8.42857143 102.381085,8.42857143 C104.073096,8.42857143 105.463532,8.63960997 106.55335,9.06232465 C107.642849,9.48472053 108.515023,10.106041 109.168595,10.9253296 C109.822167,11.7455746 110.276922,12.7503986 110.533819,13.9410768 C110.790078,15.1320738 110.918367,16.5089249 110.918367,18.0706739 L110.918367,27.5597576 L105.611288,27.5597576 L105.611288,25.2160183 Z" id="Fill-14"></path>
                <path d="M25.2040816,28.8367347 C20.2526798,28.8367347 16.2244898,24.8851528 16.2244898,20.027921 L16.2244898,9.24489796 L21.5573478,9.24489796 L21.5573478,20.027921 C21.5573478,21.9198847 23.1932805,23.4591417 25.2040816,23.4591417 C27.2148828,23.4591417 28.8508154,21.9198847 28.8508154,20.027921 L28.8508154,9.24489796 L34.1836735,9.24489796 L34.1836735,20.027921 C34.1836735,24.8851528 30.1554835,28.8367347 25.2040816,28.8367347" id="Fill-15"></path>
            </g>
        </g>
    </g>
</svg>