<?xml version="1.0" encoding="UTF-8" standalone="no"?>
<svg width="39px" height="40px" viewBox="0 0 39 40" version="1.1" xmlns="http://www.w3.org/2000/svg" xmlns:xlink="http://www.w3.org/1999/xlink">
    <!-- Generator: Sketch 45.2 (43514) - http://www.bohemiancoding.com/sketch -->
    <title>Tuteria-logomark</title>
    <desc>Created with Sketch.</desc>
    <defs></defs>
    <g id="Style-Page" stroke="none" stroke-width="1" fill="none" fill-rule="evenodd">
        <g id="Form-Elements" transform="translate(-644.000000, -58.000000)" fill="#337AB7">
            <g id="Tuteria-logomark" transform="translate(644.000000, 58.000000)">
                <path d="M19.0509348,25.5533858 C19.6533641,25.5533858 20.2557933,25.6922835 20.815214,25.9707087 L31.560237,31.3058268 L31.560237,6.92913386 L6.80710994,6.92913386 L6.80710994,31.0185827 L17.3296643,25.9492913 C17.8776366,25.6850394 18.4642857,25.5533858 19.0509348,25.5533858 M34.3474391,39.9401575 C33.7471758,39.9401575 33.145056,39.8015748 32.5828506,39.5231496 L19.0320606,32.7946457 L5.74303489,39.1968504 C4.48928901,39.8009449 3.04246873,39.7105512 1.87071758,38.9555906 C0.698966425,38.2006299 0,36.9074016 0,35.496063 L0,4.09448819 C0,1.83685039 1.80450296,0 4.02238315,0 L34.3449638,0 C36.562844,0 38.3673469,1.83685039 38.3673469,4.09448819 L38.3673469,35.8422047 C38.3673469,37.2629921 37.6609546,38.5609449 36.4771363,39.3140157 C35.8239631,39.7300787 35.0872482,39.9401575 34.3474391,39.9401575" id="Fill-1"></path>
            </g>
        </g>
    </g>
</svg>