<?xml version="1.0" encoding="UTF-8" standalone="no"?>
<svg width="22px" height="24px" viewBox="0 0 22 24" version="1.1" xmlns="http://www.w3.org/2000/svg" xmlns:xlink="http://www.w3.org/1999/xlink">
    <!-- Generator: Sketch 45.2 (43514) - http://www.bohemiancoding.com/sketch -->
    <title>female-icon</title>
    <desc>Created with Sketch.</desc>
    <defs></defs>
    <g id="Tuteria-UX" stroke="none" stroke-width="1" fill="none" fill-rule="evenodd">
        <g id="Step-1" transform="translate(-705.000000, -448.000000)" fill-rule="nonzero" fill="#8A8A8A">
            <g id="female-icon" transform="translate(705.000000, 448.000000)">
                <polygon id="Shape" points="11.3229474 21.5126706 11.3229474 19.0019493 9.92842105 19.0019493 9.92842105 21.5126706"></polygon>
                <polygon id="Shape" points="8.85261845 14.5492879 7.86653944 15.5637725 10.8 18.581736 13.7334606 15.5637725 12.7473815 14.5492879 10.8 16.5527669"></polygon>
                <path d="M7.66231579,12.4087953 L9.05684211,12.4087953 L9.05684211,15.5976373 L3.25260335,17.3036505 C2.35484066,17.5675047 1.73557895,18.4121892 1.73557895,19.3728187 L1.73557895,21.871345 L19.8644211,21.871345 L19.8644211,19.3728187 C19.8644211,18.4119709 19.2452905,17.5675432 18.3473825,17.3036463 L12.5431579,15.5976373 L12.5431579,12.4087953 L13.9376842,12.4087953 L13.9376842,14.5154231 L18.7304509,15.924139 C20.2270481,16.3639918 21.2589474,17.7713918 21.2589474,19.3728187 L21.2589474,23.3060429 L0.341052632,23.3060429 L0.341052632,19.3728187 C0.341052632,17.7716361 1.37305875,16.3639604 2.86953494,15.9241431 L7.66231579,14.5154231 L7.66231579,12.4087953 Z" id="Shape"></path>
                <path d="M10.8,12.545809 C12.968871,12.545809 14.9835789,10.0639967 14.9835789,7.52436647 L14.9835789,6.08966862 C14.9835789,3.71257853 13.1105316,1.78557505 10.8,1.78557505 C8.48946844,1.78557505 6.61642105,3.71257853 6.61642105,6.08966862 L6.61642105,7.52436647 C6.61642105,10.0639967 8.63112903,12.545809 10.8,12.545809 Z M10.8,13.9805068 C7.79978646,13.9805068 5.22189474,10.8049382 5.22189474,7.52436647 L5.22189474,6.08966862 C5.22189474,2.92021679 7.71929282,0.350877193 10.8,0.350877193 C13.8807072,0.350877193 16.3781053,2.92021679 16.3781053,6.08966862 L16.3781053,7.52436647 C16.3781053,10.8049382 13.8002135,13.9805068 10.8,13.9805068 Z" id="Shape"></path>
                <path d="M15.5680423,7.06298749 L15.7936419,5.64718795 C14.6808651,5.45951056 13.7072257,4.94830325 13.0521328,4.22851485 L12.5431603,3.66927735 L12.0341852,4.22851237 C11.1858937,5.16057044 9.83737644,5.73099415 8.35957895,5.73099415 C7.59449055,5.73099415 6.85755696,5.57812973 6.19680027,5.29135316 L5.65476352,6.61323944 C6.48735077,6.9745926 7.40860881,7.16569201 8.35957895,7.16569201 C9.95219293,7.16569201 11.4452143,6.62924135 12.5437361,5.69906251 C13.3649948,6.39160727 14.4149465,6.86851002 15.5680423,7.06298749 Z" id="Shape"></path>
                <path d="M5.5266723,11.5844646 C6.01502813,10.4459559 6.32288482,9.23483475 6.48753726,8.01577523 C6.54755665,7.57140158 6.58490102,7.15025712 6.6038688,6.76038786 C6.61679289,6.49474233 6.6197919,6.276979 6.61705839,6.11520307 C6.61638451,6.08159518 6.61638451,6.08159518 6.61602737,6.07022903 L5.22228842,6.11843374 C5.22494787,6.27064505 5.22239104,6.45630097 5.21108607,6.68866651 C5.19409897,7.03782431 5.16045782,7.41720644 5.10628233,7.81831276 C4.9582953,8.91398435 4.68253061,9.9988542 4.25085348,11.0052273 C3.90759758,11.8054631 3.47683432,12.5269693 2.95116613,13.1527992 L2.60058525,13.5701803 L2.90264402,14.0259491 C3.20821354,14.4870151 3.56502758,14.8834001 3.96223157,15.2190658 C4.44497314,15.627017 4.96136486,15.9254933 5.47921863,16.1326134 C5.79681295,16.259638 6.05241676,16.3293625 6.21659148,16.3584874 L6.45355925,14.9446549 C6.37645029,14.9309756 6.20980764,14.8855182 5.98451366,14.79541 C5.59755359,14.640642 5.20913147,14.4161325 4.84738014,14.1104268 C4.67672205,13.9662085 4.51613232,13.8071019 4.36690412,13.6322149 C4.82507995,13.0095018 5.20973549,12.3233424 5.5266723,11.5844646 Z" id="Shape"></path>
                <path d="M16.7526199,14.1104268 C16.3908685,14.4161325 16.0024464,14.640642 15.6154863,14.79541 C15.3901924,14.8855182 15.2235497,14.9309756 15.1464407,14.9446549 L15.3834085,16.3584874 C15.5475832,16.3293625 15.8031871,16.259638 16.1207814,16.1326134 C16.6386351,15.9254933 17.1550269,15.627017 17.6377684,15.2190658 C18.0349724,14.8834001 18.3917865,14.4870151 18.697356,14.0259491 L18.9994148,13.5701803 L18.6488339,13.1527992 C18.1231657,12.5269693 17.6924024,11.8054631 17.3491465,11.0052273 C16.9174694,9.9988542 16.6417047,8.91398435 16.4937177,7.81831276 C16.4395422,7.41720644 16.405901,7.03782431 16.3889139,6.68866651 C16.377609,6.45630097 16.3750521,6.27064505 16.3772573,6.14013965 C16.3775507,6.12566743 15.9131225,6.10236389 14.9839726,6.07022903 C14.9836155,6.08159518 14.9836155,6.08159518 14.9829416,6.11520307 C14.9802081,6.276979 14.9832071,6.49474233 14.9961312,6.76038786 C15.015099,7.15025712 15.0524434,7.57140158 15.1124627,8.01577523 C15.2771152,9.23483475 15.5849719,10.4459559 16.0733277,11.5844646 C16.3902645,12.3233424 16.77492,13.0095018 17.2330959,13.6322149 C17.0838677,13.8071019 16.923278,13.9662085 16.7526199,14.1104268 Z" id="Shape"></path>
            </g>
        </g>
    </g>
</svg>